# xmcd
#
# Track frame offsets: 
#        225
#        12965
#        32835
#        48280
#        60621
#        84743
#        93772
#        102943
#        115252
#        132822
#        148954
#        165345
#        181286
#
# Disc length: 2716 seconds
#
# Revision: 0
# Processed by: cddbd v1.5.2PL0 Copyright (c) Steve Scherf et al.
# Submitted via: ExactAudioCopy v0.95b2
#
DISCID=a60a990d
DTITLE=Making Blues - Police Dog Blues
DYEAR=2002
DGENRE=Blues
TTITLE0=Hey Baby
TTITLE1=Mississippi Kid
TTITLE2=Magnolia
TTITLE3=Pallet On The Floor
TTITLE4=Brown Monkeys
TTITLE5=Harp Boogie
TTITLE6=Woman Lover
TTITLE7=Like Crying
TTITLE8=Walking Blues
TTITLE9=Police Dog Blues
TTITLE10=Tribute To Brownie And Sonny
TTITLE11=Me And Bobby McGee
TTITLE12=Room To Moove
EXTD=
EXTT0=
EXTT1=
EXTT2=
EXTT3=
EXTT4=
EXTT5=
EXTT6=
EXTT7=
EXTT8=
EXTT9=
EXTT10=
EXTT11=
EXTT12=
PLAYORDER=
